<?xml version="1.0" encoding="UTF-8"?>
<svg version="1.1" xmlns="http://www.w3.org/2000/svg" width="352" height="333">
<path d="M0 0 C0 8.91 0 17.82 0 27 C-2.990625 27.556875 -5.98125 28.11375 -9.0625 28.6875 C-39.70357959 34.71913018 -67.38761595 50.0190226 -85.3828125 76.01171875 C-88.10224991 80.08278732 -90.63287344 84.25026473 -93.0625 88.5 C-93.43270264 89.14606201 -93.80290527 89.79212402 -94.18432617 90.45776367 C-96.44110254 94.5568931 -97.87028914 98.45774286 -99 103 C-86.31533574 95.69736344 -73.63675925 88.38532575 -61 81 C-49.40879306 74.22782511 -37.78801591 67.50785812 -26.15087891 60.81494141 C-23.0182529 59.01051388 -19.88972962 57.19913233 -16.76171875 55.38671875 C-14.8412538 54.27845871 -12.92068623 53.1703765 -11 52.0625 C-10.11546143 51.54800293 -9.23092285 51.03350586 -8.31958008 50.50341797 C-7.51286865 50.0395166 -6.70615723 49.57561523 -5.875 49.09765625 C-4.81925781 48.48676147 -4.81925781 48.48676147 -3.7421875 47.86352539 C-2 47 -2 47 0 47 C0.39479012 58.82137572 0.69637491 70.64117285 0.88080692 82.46780968 C0.9693569 87.96057079 1.08929663 93.44880835 1.2824707 98.93896484 C1.46792542 104.24325065 1.56896259 109.54320468 1.61291313 114.85048294 C1.64420377 116.86924118 1.70532608 118.88777486 1.79741096 120.90467453 C2.36082063 133.76245196 2.36082063 133.76245196 0 139 C-4.09546805 143.46968372 -9.50626573 145.89316516 -15.03068829 148.1686182 C-17.47940075 149.202388 -19.71323981 150.49595371 -21.97265625 151.890625 C-23.33564352 152.67759271 -24.6989218 153.46405663 -26.0625 154.25 C-33.28078686 158.42051547 -40.48734439 162.61076217 -47.6875 166.8125 C-49.20174561 167.69566895 -49.20174561 167.69566895 -50.74658203 168.59667969 C-55.82949312 171.56218097 -60.90948564 174.53250911 -65.984375 177.51171875 C-77.45995315 184.24004626 -88.99069868 190.85067775 -100.62866211 197.29492188 C-102.09638062 198.10993164 -102.09638062 198.10993164 -103.59375 198.94140625 C-104.98207031 199.71121826 -104.98207031 199.71121826 -106.3984375 200.49658203 C-109.45683254 202.26399913 -112.3772136 204.19533434 -115.26367188 206.23022461 C-117 207 -117 207 -119.0847168 206.88208008 C-121.66960974 205.69161249 -122.07824558 204.52021277 -123.17578125 201.921875 C-123.52833984 201.09042969 -123.88089844 200.25898438 -124.24414062 199.40234375 C-124.59669922 198.52707031 -124.94925781 197.65179688 -125.3125 196.75 C-125.68439453 195.89019531 -126.05628906 195.03039062 -126.43945312 194.14453125 C-129.49743441 186.75298617 -129.49743441 186.75298617 -128 182 C-125.75390625 180.0703125 -125.75390625 180.0703125 -122.5625 178.125 C-121.95905762 177.75334717 -121.35561523 177.38169434 -120.73388672 176.9987793 C-118.5033419 175.64076319 -116.25462084 174.31767009 -114 173 C-113.06816895 172.45520996 -112.13633789 171.91041992 -111.17626953 171.34912109 C-105.72921148 168.17654362 -100.26704476 165.03097443 -94.796875 161.8984375 C-88.47126835 158.27585129 -82.16856749 154.61541058 -75.875 150.9375 C-74.90224121 150.3693457 -73.92948242 149.80119141 -72.92724609 149.21582031 C-70.95822172 148.06562074 -68.98930916 146.91522973 -67.02050781 145.76464844 C-61.76531607 142.69444751 -56.50749465 139.62875509 -51.25 136.5625 C-47.03684368 134.10540321 -47.03684368 134.10540321 -42.84863281 131.60620117 C-40 130 -40 130 -36.67480469 128.55981445 C-33.2729212 126.97590999 -30.71185194 125.60217733 -28 123 C-26.41719794 118.02234759 -26.53905835 113.22432959 -26.75 108.0625 C-26.76199105 106.69730276 -26.76855035 105.33204642 -26.76953125 103.96679688 C-26.79304185 100.64004663 -26.87147795 97.32407644 -27 94 C-39.26852821 100.72290561 -51.38160057 107.68784342 -63.453125 114.7578125 C-67.62107515 117.19816541 -71.80091335 119.61368978 -76 122 C-83.25472074 126.12540621 -90.45277298 130.34674188 -97.65698242 134.55957031 C-105.57131652 139.18149668 -113.51744456 143.74523357 -121.48852539 148.26855469 C-122.30313232 148.73165039 -123.11773926 149.19474609 -123.95703125 149.671875 C-124.66835205 150.0750293 -125.37967285 150.47818359 -126.11254883 150.89355469 C-127.77787749 151.86978926 -129.39382965 152.92921977 -131 154 C-131.99 154 -132.98 154 -134 154 C-134.02950374 149.91668235 -134.04696535 145.8333928 -134.0625 141.75 C-134.07087891 140.61046875 -134.07925781 139.4709375 -134.08789062 138.296875 C-134.11742502 127.9007669 -133.99969701 117.72036483 -130.8125 107.75 C-130.59037842 107.03384521 -130.36825684 106.31769043 -130.1394043 105.57983398 C-129.44520528 103.37988711 -128.72666181 101.18941616 -128 99 C-127.78214844 98.3292041 -127.56429687 97.6584082 -127.33984375 96.96728516 C-120.51952552 76.27660419 -108.8968371 58.78542037 -94 43 C-93.32710937 42.26265625 -92.65421875 41.5253125 -91.9609375 40.765625 C-69.0791469 16.59834054 -33.2402176 0 0 0 Z " fill="#F8814B" transform="translate(167,23)"/>
<path d="M0 0 C7.73479772 3.636958 15.02188376 8.07745289 22 13 C20.60604691 17.18185928 17.72313494 18.19619644 14.0625 20.25 C13.32177246 20.67547119 12.58104492 21.10094238 11.81787109 21.53930664 C10.14743247 22.49811207 8.47475432 23.45302246 6.80029297 24.40478516 C2.67948475 26.75224469 -1.42371559 29.12994729 -5.52929688 31.50390625 C-8.89149538 33.44703323 -12.2559585 35.38618274 -15.62109375 37.32421875 C-23.33095476 41.76538293 -31.03046856 46.22430342 -38.72900391 50.68505859 C-41.08284206 52.04796682 -43.43778084 53.40895695 -45.79296875 54.76953125 C-49.74665635 57.05360072 -53.69633479 59.34450247 -57.64501953 61.63720703 C-60.06010162 63.03477993 -62.48095641 64.42197907 -64.90234375 65.80859375 C-66.45587521 66.70547625 -68.00926632 67.6026019 -69.5625 68.5 C-70.28324707 68.90935791 -71.00399414 69.31871582 -71.74658203 69.74047852 C-74.96472349 71.60944293 -76.90392949 72.85589424 -79 76 C-55.03616822 96.69347356 -25.43936922 106.13054483 6.16308594 104.23925781 C30.85825093 102.15653305 54.10418702 91.95058119 73 76 C73.33 75.34 73.66 74.68 74 74 C73.3503125 73.77570313 72.700625 73.55140625 72.03125 73.3203125 C67.1555095 71.19660079 62.73821773 68.27823495 58.23828125 65.45703125 C57.50996094 65.01488281 56.78164062 64.57273437 56.03125 64.1171875 C55.37705078 63.71097168 54.72285156 63.30475586 54.04882812 62.88623047 C51.46955287 61.77055254 49.79030543 61.6750279 47 62 C44.63385083 63.06417653 44.63385083 63.06417653 42.3515625 64.61328125 C41.48176758 65.16193848 40.61197266 65.7105957 39.71582031 66.27587891 C38.81959961 66.84483887 37.92337891 67.41379883 37 68 C33.47623253 70.09357835 29.92553196 72.13971512 26.375 74.1875 C25.48554688 74.70763672 24.59609375 75.22777344 23.6796875 75.76367188 C15.28544649 80.59653269 8.7075443 83.53344586 -1.0625 83.3125 C-1.88524414 83.3019458 -2.70798828 83.2913916 -3.55566406 83.28051758 C-13.52926132 83.06751362 -24.05061702 82.80210794 -33 78 C-29.7562128 75.32027075 -26.4983174 72.97608073 -22.88671875 70.8203125 C-21.89873291 70.22863281 -20.91074707 69.63695312 -19.89282227 69.02734375 C-18.30618774 68.08568359 -18.30618774 68.08568359 -16.6875 67.125 C-15.57882568 66.46371094 -14.47015137 65.80242187 -13.32788086 65.12109375 C-2.98288586 58.95745983 7.41029587 52.87628139 17.82910156 46.83837891 C20.06377981 45.54278857 22.29758039 44.24577805 24.53027344 42.94677734 C27.53924827 41.19616071 30.54990597 39.44847334 33.5617981 37.70288086 C35.27968599 36.70653164 36.9961804 35.70778104 38.71264648 34.70898438 C40.27221069 33.80696289 40.27221069 33.80696289 41.86328125 32.88671875 C42.78407471 32.35264404 43.70486816 31.81856934 44.65356445 31.26831055 C47 30 47 30 50 29 C51.7956543 29.67407227 51.7956543 29.67407227 53.82421875 30.81640625 C54.59354736 31.2438916 55.36287598 31.67137695 56.15551758 32.11181641 C56.99107178 32.59054199 57.82662598 33.06926758 58.6875 33.5625 C59.99980591 34.29992432 59.99980591 34.29992432 61.33862305 35.05224609 C64.23418639 36.68715428 67.11844344 38.34053637 70 40 C71.50868652 40.86842529 71.50868652 40.86842529 73.04785156 41.75439453 C80.05413462 45.79869879 87.03308571 49.88831678 94 54 C94.79470703 54.46776855 95.58941406 54.93553711 96.40820312 55.41748047 C103.12861292 59.37846734 109.68886515 63.40791323 116 68 C113.17005902 73.30613934 109.9680509 77.74179248 106 82.25 C105.42677002 82.90258789 104.85354004 83.55517578 104.26293945 84.22753906 C81.4573858 109.81594126 46.76993875 129.47765246 12 132 C-31.29061657 133.87910231 -69.31117887 122.8133929 -101.70410156 93.45556641 C-109.39116977 86.32819108 -115.83351729 78.45844974 -122 70 C-120.5130628 66.09033937 -118.48772261 64.77072319 -114.91796875 62.70703125 C-113.85570068 62.08562256 -112.79343262 61.46421387 -111.69897461 60.82397461 C-110.52857419 60.15332403 -109.35807992 59.48283723 -108.1875 58.8125 C-106.97149722 58.10591239 -105.75609412 57.39829186 -104.54125977 56.68969727 C-101.98942869 55.20303687 -99.43442277 53.72205546 -96.87695312 52.24511719 C-93.13132161 50.0797399 -89.39961131 47.89132143 -85.671875 45.6953125 C-65.21300146 33.64818834 -44.67379189 21.73622406 -24.02148438 10.0234375 C-20.38342561 7.95681403 -16.76433543 5.87758843 -13.2109375 3.66796875 C-12.15132813 3.01441406 -11.09171875 2.36085937 -10 1.6875 C-9.13375 1.13449219 -8.2675 0.58148438 -7.375 0.01171875 C-4.34531067 -1.27888904 -3.10409285 -1.04410396 0 0 Z " fill="#F7814B" transform="translate(179,179)"/>
<path d="M0 0 C27.33720478 -0.11350602 56.9682616 11.81740845 78 29 C78.53931152 29.43538086 79.07862305 29.87076172 79.63427734 30.31933594 C95.54799578 43.24008699 107.97203824 57.87032477 118.125 75.6875 C118.51574707 76.37102539 118.90649414 77.05455078 119.30908203 77.75878906 C122 82.62177588 122 82.62177588 122 86 C118.06468169 85.41393568 115.27064442 84.21854332 111.859375 82.19140625 C110.88025146 81.61463135 109.90112793 81.03785645 108.89233398 80.44360352 C107.85536377 79.82283936 106.81839355 79.2020752 105.75 78.5625 C104.67242432 77.9243335 103.59484863 77.28616699 102.48461914 76.62866211 C100.31460824 75.34346608 98.14604636 74.05582 95.97900391 72.765625 C93.47885911 71.28381487 90.97010196 69.82109697 88.44921875 68.375 C80.29739644 63.68626166 72.41006105 58.68282493 64.5625 53.5 C57.49295183 48.84080436 50.38989059 44.32378922 43 40.1875 C42.2891626 39.7853125 41.5783252 39.383125 40.84594727 38.96875 C40.17490967 38.60136719 39.50387207 38.23398437 38.8125 37.85546875 C38.24144531 37.54246826 37.67039063 37.22946777 37.08203125 36.90698242 C34.16789171 35.6375138 31.05633963 34.87323989 28 34 C28 43.24 28 52.48 28 62 C30.248125 63.258125 32.49625 64.51625 34.8125 65.8125 C49.33947454 73.97142391 63.7075345 82.40708816 78.09570312 90.80737305 C84.2233637 94.38395987 90.35739978 97.94913907 96.5 101.5 C104.00741313 105.84144938 111.5062669 110.19747858 119 114.5625 C120.04607422 115.1709375 121.09214844 115.779375 122.16992188 116.40625 C123.14509766 116.97472656 124.12027344 117.54320312 125.125 118.12890625 C125.99382812 118.63494385 126.86265625 119.14098145 127.7578125 119.66235352 C132.91251756 122.73755267 132.91251756 122.73755267 134 126 C134.08358958 128.21089945 134.10731764 130.42426078 134.09765625 132.63671875 C134.09443359 133.93544922 134.09121094 135.23417969 134.08789062 136.57226562 C134.07953531 137.94401108 134.07107037 139.31575587 134.0625 140.6875 C134.05748335 142.07096195 134.05292073 143.45442563 134.04882812 144.83789062 C134.03702529 148.22530395 134.02056019 151.61263033 134 155 C126.09465294 151.15618699 118.43486355 147.04471418 110.875 142.5625 C108.76859599 141.32359487 106.66181174 140.08533602 104.5546875 138.84765625 C103.47670898 138.21359863 102.39873047 137.57954102 101.28808594 136.92626953 C95.87535697 133.75531382 90.43735083 130.62848399 85 127.5 C75.66516853 122.12445104 66.34848398 116.71909045 57.05664062 111.26953125 C47.08226763 105.4322976 37.03647802 99.73513029 27 94 C27 113.8 27 133.6 27 154 C23.67365969 152.66946387 20.79969763 151.43261138 17.71484375 149.72265625 C16.93689453 149.29146484 16.15894531 148.86027344 15.35742188 148.41601562 C14.15956055 147.74602539 14.15956055 147.74602539 12.9375 147.0625 C12.13505859 146.61970703 11.33261719 146.17691406 10.50585938 145.72070312 C9.72919922 145.28822266 8.95253906 144.85574219 8.15234375 144.41015625 C7.1003479 143.82439819 7.1003479 143.82439819 6.02709961 143.22680664 C5.35815674 142.82196045 4.68921387 142.41711426 4 142 C2.9621681 141.39396328 2.9621681 141.39396328 1.9033699 140.7756834 C0 139 0 139 -0.49219131 136.460042 C-0.48850414 135.43777358 -0.48481697 134.41550516 -0.48101807 133.36225891 C-0.48651672 132.1885675 -0.49201538 131.0148761 -0.49768066 129.80561829 C-0.48329956 128.51665146 -0.46891846 127.22768463 -0.45410156 125.8996582 C-0.45297337 124.52977532 -0.45360639 123.15989002 -0.45587158 121.79000854 C-0.4570208 118.0690192 -0.43347859 114.34854403 -0.40557575 110.62767434 C-0.3805963 106.73994305 -0.37822284 102.8522004 -0.37347412 98.96440125 C-0.36103412 91.60140768 -0.32819883 84.23865124 -0.28807616 76.87576216 C-0.24339017 68.49378159 -0.22137943 60.11178977 -0.20129442 51.72971976 C-0.15946695 34.4863426 -0.08909519 17.24319636 0 0 Z " fill="#F7814B" transform="translate(185,23)"/>
<path d="M0 0 C5.374691 1.48733588 9.60495378 4.02240627 14.25 7 C14.96929687 7.45117188 15.68859375 7.90234375 16.4296875 8.3671875 C21.70838648 11.70838648 21.70838648 11.70838648 24 14 C23.65618006 19.26924051 21.65545715 23.97305819 19.6875 28.8125 C19.39166016 29.58787109 19.09582031 30.36324219 18.79101562 31.16210938 C18.49259766 31.89880859 18.19417969 32.63550781 17.88671875 33.39453125 C17.62076904 34.06331299 17.35481934 34.73209473 17.08081055 35.42114258 C16 37 16 37 14.14819336 37.8515625 C11.39060935 38.04210814 10.13255383 37.34566679 7.7421875 35.98046875 C6.95199219 35.53509766 6.16179687 35.08972656 5.34765625 34.63085938 C4.53167969 34.15455078 3.71570313 33.67824219 2.875 33.1875 C1.63943359 32.49043945 1.63943359 32.49043945 0.37890625 31.77929688 C-5.67199405 28.32800595 -5.67199405 28.32800595 -8 26 C-7.59369674 20.55722924 -5.65935434 15.35732803 -4 10.1875 C-3.59007812 8.88135742 -3.59007812 8.88135742 -3.171875 7.54882812 C-1.13096429 1.13096429 -1.13096429 1.13096429 0 0 Z " fill="#F6804B" transform="translate(290,192)"/>
</svg>
