<?xml version="1.0" encoding="UTF-8" standalone="no"?>
<svg
   version="1.0"
   width="5000pt"
   height="4352pt"
   viewBox="0 0 5000 4352"
   preserveAspectRatio="xMidYMid"
   id="svg1"
   sodipodi:docname="vector-check-mark-icon.svg"
   inkscape:version="1.3.2 (091e20e, 2023-11-25, custom)"
   xmlns:inkscape="http://www.inkscape.org/namespaces/inkscape"
   xmlns:sodipodi="http://sodipodi.sourceforge.net/DTD/sodipodi-0.dtd"
   xmlns="http://www.w3.org/2000/svg"
   xmlns:svg="http://www.w3.org/2000/svg">
  <defs
     id="defs1" />
  <sodipodi:namedview
     id="namedview1"
     pagecolor="#ffffff"
     bordercolor="#000000"
     borderopacity="0.25"
     inkscape:showpageshadow="2"
     inkscape:pageopacity="0.0"
     inkscape:pagecheckerboard="0"
     inkscape:deskcolor="#d1d1d1"
     inkscape:document-units="pt"
     inkscape:zoom="0.061575"
     inkscape:cx="1672.7568"
     inkscape:cy="4376.7763"
     inkscape:window-width="1920"
     inkscape:window-height="1017"
     inkscape:window-x="-8"
     inkscape:window-y="-8"
     inkscape:window-maximized="1"
     inkscape:current-layer="svg1" />
  <g
     transform="matrix(0.13829278,0,0,-0.13829278,-997.98629,5636.036)"
     fill="#000000"
     stroke="none"
     id="g1"
     style="fill:#48a8a5;fill-opacity:1">
    <path
       d="m 39050,40623 c -122,-7 -362,-36 -490,-59 -977,-178 -1840,-695 -2453,-1470 -31,-40 -532,-737 -1113,-1550 -582,-814 -1424,-1992 -1873,-2619 -448,-627 -1168,-1635 -1601,-2240 -863,-1207 -1853,-2592 -3035,-4245 -423,-591 -1122,-1570 -1555,-2175 -777,-1087 -1600,-2238 -3089,-4320 -420,-588 -1046,-1464 -1389,-1945 -344,-481 -626,-876 -627,-878 -2,-2 -75,50 -163,115 -217,160 -727,537 -1312,968 -267,197 -663,490 -880,650 -217,160 -638,471 -935,690 -297,219 -675,498 -840,620 -844,623 -3529,2605 -3590,2650 -515,384 -680,495 -935,628 -418,219 -952,382 -1375,422 -38,4 -81,9 -95,12 -46,10 -594,12 -695,3 -1615,-147 -2957,-1196 -3484,-2725 -291,-842 -301,-1779 -29,-2625 208,-646 535,-1186 998,-1651 193,-194 303,-286 603,-508 122,-89 330,-243 462,-340 132,-98 526,-388 875,-646 349,-258 685,-505 745,-550 61,-45 301,-222 535,-395 543,-401 1142,-843 1680,-1240 387,-286 802,-593 1870,-1380 206,-152 553,-408 770,-569 399,-294 495,-365 1750,-1291 382,-282 754,-556 825,-609 72,-53 177,-131 235,-174 58,-42 294,-216 525,-387 231,-171 570,-421 754,-557 384,-283 546,-388 791,-512 475,-240 946,-373 1490,-420 153,-14 601,-6 755,13 1080,132 2024,653 2687,1480 48,60 187,248 309,420 1099,1536 3193,4465 4924,6886 419,586 1107,1549 1530,2140 968,1354 2072,2898 3056,4275 421,589 1467,2051 2324,3250 857,1199 1901,2659 2320,3245 419,586 1096,1533 1505,2105 409,572 776,1090 816,1150 338,516 548,1089 636,1735 20,145 23,208 23,515 0,282 -4,377 -18,490 -126,966 -518,1785 -1167,2436 -321,322 -635,553 -1020,748 -462,235 -906,366 -1430,421 -102,11 -490,19 -600,13 z"
       id="path1"
       style="fill:#48a8a5;fill-opacity:1" />
  </g>
</svg>
