<?xml version="1.0" encoding="UTF-8"?>
<svg version="1.1" xmlns="http://www.w3.org/2000/svg" width="1536" height="1152">
<!-- <path d="M0 0 C506.88 0 1013.76 0 1536 0 C1536 380.16 1536 760.32 1536 1152 C1029.12 1152 522.24 1152 0 1152 C0 771.84 0 391.68 0 0 Z " fill="#FEFEFE" transform="translate(0,0)"/> -->
<path d="M0 0 C2.242729 1.71935679 4.46131084 3.4681601 6.6796875 5.21875 C16.62256815 12.99940891 27.31137411 18.56821822 38.60742188 24.09716797 C63.68895555 36.47855122 87.20526988 51.93014097 110.12890625 67.890625 C111.22332031 68.64859375 111.22332031 68.64859375 112.33984375 69.421875 C127.0742488 79.63489222 141.37367157 90.38735352 155.12890625 101.890625 C156.10601563 102.69371094 157.083125 103.49679688 158.08984375 104.32421875 C170.61984403 114.6901599 182.53145884 125.75820663 193.37890625 137.87890625 C200.55286906 145.83253193 208.23353557 153.46333646 216.40625 160.38671875 C218.84887903 162.51917267 221.0857083 164.83510964 223.3515625 167.15234375 C225.18230251 168.94284772 227.09867768 170.56526906 229.06640625 172.203125 C234.04738617 176.48365461 241.48857659 183.11559527 242.40234375 189.9296875 C242.75348894 198.87038434 240.17003006 206.61763881 237.12890625 214.890625 C236.81195801 215.75896973 236.49500977 216.62731445 236.16845703 217.52197266 C226.24326933 244.30266536 213.28039724 270.10871184 199.12890625 294.890625 C198.7097998 295.62555176 198.29069336 296.36047852 197.85888672 297.11767578 C195.01284009 302.08108199 192.0899811 306.99512533 189.12890625 311.890625 C188.64873047 312.68758789 188.16855469 313.48455078 187.67382812 314.30566406 C175.59396805 334.29220138 162.61191166 353.5637407 148.12890625 371.890625 C146.9996875 373.34082031 146.9996875 373.34082031 145.84765625 374.8203125 C137.16682042 385.73613965 127.57200673 396.13619463 117.12890625 405.390625 C116.64526611 405.83398193 116.16162598 406.27733887 115.66333008 406.73413086 C102.17118523 418.27705255 85.88719857 421.64885374 69.00390625 425.453125 C27.05596808 433.5325462 27.05596808 433.5325462 -5.70703125 458.53125 C-11.35617938 468.79721463 -13.54142636 480.73795889 -16.01171875 492.08984375 C-19.18000016 506.63507492 -23.2977221 520.72673274 -27.87109375 534.890625 C-28.40524902 536.56463379 -28.40524902 536.56463379 -28.95019531 538.27246094 C-44.81265723 587.85871678 -66.60429224 635.90320548 -96.24609375 678.828125 C-96.71378174 679.50633301 -97.18146973 680.18454102 -97.66333008 680.88330078 C-108.22499145 696.11174276 -108.22499145 696.11174276 -112.81784248 700.9350605 C-118.90077186 707.65205895 -120.01823713 712.49179956 -119.83935547 721.40185547 C-119.84706467 722.61299011 -119.85477386 723.82412476 -119.86271667 725.07196045 C-119.87631896 728.36637315 -119.85500885 731.6582893 -119.81831121 734.95245123 C-119.78874073 738.41954478 -119.80644224 741.88639694 -119.81936646 745.35354614 C-119.83713394 751.91949266 -119.81616621 758.4846738 -119.77954495 765.05052006 C-119.72733745 774.65890807 -119.72577273 784.26733303 -119.73358345 793.87584114 C-119.73415273 794.58480345 -119.734722 795.29376575 -119.73530853 796.02421176 C-119.7364918 797.43951265 -119.73780334 798.85481342 -119.73924649 800.27011406 C-119.7424744 805.03922363 -119.72324034 809.80783328 -119.69723511 814.57687378 C-119.69102728 817.09145053 -119.68500562 819.60602776 -119.67919922 822.12060547 C-119.66879105 823.23994476 -119.65838287 824.35928406 -119.6476593 825.51254272 C-119.64451307 833.91385556 -120.27906431 842.20298276 -122.99609375 850.203125 C-124.27175387 854.12122395 -124.8524858 857.86141241 -122.99462891 861.70288086 C-121.76706137 863.59185994 -120.47306126 865.4011346 -119.12109375 867.203125 C-110.26906074 879.18167549 -109.33193193 889.08236808 -109.47070312 903.8359375 C-109.40775291 911.1677856 -108.85000936 916.48819852 -105.04272461 922.83984375 C-99.62972563 932.31456586 -103.83346732 945.38170165 -105.87109375 954.890625 C-232.59109375 954.890625 -359.31109375 954.890625 -489.87109375 954.890625 C-489.87109375 944.23398943 -489.48846182 936.12624209 -486.93359375 926.140625 C-486.65580078 924.99335937 -486.37800781 923.84609375 -486.09179688 922.6640625 C-485.12287748 918.69499508 -484.16339874 914.76753996 -482.87109375 910.890625 C-483.9384375 911.05046875 -485.00578125 911.2103125 -486.10546875 911.375 C-491.77014006 912.07747903 -497.4193641 912.11317985 -503.12109375 912.140625 C-504.17683594 912.16125 -505.23257812 912.181875 -506.3203125 912.203125 C-523.48478939 912.28716161 -534.73253321 906.58484555 -546.87109375 894.890625 C-547.51175781 894.27832031 -548.15242188 893.66601562 -548.8125 893.03515625 C-552.38979671 889.53788855 -555.6564103 885.86854999 -558.8046875 881.98046875 C-564.76596954 875.95157292 -570.57088068 872.84902505 -578.74609375 870.765625 C-580.12474609 870.39244141 -580.12474609 870.39244141 -581.53125 870.01171875 C-588.0138155 868.28601511 -594.5426309 866.82099793 -601.09960938 865.41162109 C-615.94948756 862.17651514 -630.38410517 857.4854627 -644.80621338 852.73583984 C-646.36273927 852.22337834 -647.91996661 851.71304131 -649.47796631 851.20507812 C-678.72067868 841.64375655 -703.782748 827.23035816 -726.87109375 806.890625 C-727.60585938 806.25511719 -728.340625 805.61960937 -729.09765625 804.96484375 C-731.03426301 803.28670841 -732.95370324 801.5906595 -734.87109375 799.890625 C-735.95003906 798.95089844 -735.95003906 798.95089844 -737.05078125 797.9921875 C-742.33911423 793.3280512 -747.42099768 788.4724071 -752.43359375 783.515625 C-753.03437744 782.9278125 -753.63516113 782.34 -754.25415039 781.734375 C-757.78997167 778.20571415 -761.00378342 774.54214573 -764.125 770.640625 C-768.68329434 764.99406517 -773.62670566 759.82988151 -778.77246094 754.72851562 C-780.24521898 753.26649339 -781.7069442 751.79405012 -783.16796875 750.3203125 C-788.67245478 744.80857426 -794.36982767 739.66835717 -800.47680664 734.81958008 C-807.97952698 728.77502074 -810.30504566 724.67053035 -811.50708008 715.07104492 C-812.27356162 707.19981931 -812.21900779 699.29119243 -812.18359375 691.390625 C-812.18110626 690.50467651 -812.17861877 689.61872803 -812.17605591 688.70593262 C-811.95495287 637.76608939 -795.61574271 585.95684131 -760.87109375 547.890625 C-760.13503906 547.08367188 -759.39898438 546.27671875 -758.640625 545.4453125 C-747.56666751 533.86707643 -736.00595344 527.07154239 -721.39355469 520.94775391 C-692.06183868 510.14821388 -692.06183868 510.14821388 -668.87109375 490.890625 C-668.33180527 488.85629588 -668.33180527 488.85629588 -668.01171875 486.6015625 C-667.86895508 485.75102295 -667.72619141 484.9004834 -667.57910156 484.02416992 C-667.42795898 483.1138501 -667.27681641 482.20353027 -667.12109375 481.265625 C-661.33368572 449.09039227 -644.253533 418.60984958 -617.13500977 399.71337891 C-593.12159293 383.69314056 -563.47972785 372.94018715 -534.62109375 378.640625 C-528.34538379 379.93375527 -522.39255396 381.45365052 -516.55078125 384.15625 C-514.87121028 385.02415675 -514.87121028 385.02415675 -512.87109375 384.890625 C-512.33484375 384.21 -511.79859375 383.529375 -511.24609375 382.828125 C-497.96078431 366.3962949 -477.45076594 358.79234699 -458.37109375 351.390625 C-442.01345947 345.04035148 -427.07266736 338.33238557 -412.87109375 327.890625 C-411.66259766 327.07078125 -411.66259766 327.07078125 -410.4296875 326.234375 C-404.89399395 322.40118757 -401.72351137 318.5746368 -400.19140625 311.953125 C-399.65067974 308.93098231 -399.1872844 305.94436097 -398.87109375 302.890625 C-398.78085937 302.06433594 -398.690625 301.23804688 -398.59765625 300.38671875 C-398.97858567 296.90937737 -400.52593895 294.95218978 -402.49609375 292.078125 C-411.85506075 277.52271874 -418.87109375 256.24096748 -418.87109375 238.890625 C-419.75796875 238.849375 -420.64484375 238.808125 -421.55859375 238.765625 C-425.03061723 237.84848672 -426.51990494 236.87454558 -428.6484375 234 C-437.42726786 218.85441407 -439.02781226 200.65609907 -439.12109375 183.515625 C-439.15203125 182.05962891 -439.15203125 182.05962891 -439.18359375 180.57421875 C-439.18875 179.63964844 -439.19390625 178.70507812 -439.19921875 177.7421875 C-439.20856445 176.90510254 -439.21791016 176.06801758 -439.22753906 175.20556641 C-438.79237756 172.37940108 -437.58310533 171.13713457 -435.87109375 168.890625 C-434.46828011 160.83380826 -436.59802967 151.83856943 -437.68359375 143.828125 C-437.77512726 143.14120575 -437.86666077 142.4542865 -437.96096802 141.74655151 C-440.5933664 121.74722433 -440.5933664 121.74722433 -445.24609375 102.140625 C-445.43099365 101.48392822 -445.61589355 100.82723145 -445.80639648 100.15063477 C-447.24574768 95.57566087 -449.32742902 93.05207627 -452.87109375 89.890625 C-458.20223209 84.31880321 -460.84023886 79.88158534 -461.30859375 72.015625 C-461.15067312 66.48840304 -459.66976032 62.89640598 -455.87109375 58.890625 C-449.25791211 54.72510914 -441.78339561 52.27776315 -434.37109375 49.953125 C-433.29085938 49.61249023 -432.210625 49.27185547 -431.09765625 48.92089844 C-383.79712304 34.35113258 -334.65441742 30.79245314 -285.49609375 33.765625 C-284.20179443 33.84385498 -282.90749512 33.92208496 -281.57397461 34.00268555 C-260.61461086 35.43769407 -260.61461086 35.43769407 -255.87109375 39.390625 C-248.98628101 49.92336091 -248.71334671 61.20746987 -248.66796875 73.375 C-248.66226868 74.58464417 -248.6565686 75.79428833 -248.6506958 77.04058838 C-248.64126826 79.60582616 -248.63472077 82.17107593 -248.63085938 84.73632812 C-248.62129835 88.55882773 -248.59031467 92.38075472 -248.55859375 96.203125 C-248.47626218 115.63526082 -250.01727353 134.67398086 -252.87109375 153.890625 C-252.10796875 154.138125 -251.34484375 154.385625 -250.55859375 154.640625 C-246.78589807 156.39536718 -245.50853003 158.50006739 -243.80566406 162.21484375 C-242.84572726 164.96325214 -242.61319749 166.99345232 -242.60546875 169.890625 C-242.60144043 170.85009033 -242.59741211 171.80955566 -242.59326172 172.7980957 C-242.60703857 174.32889771 -242.60703857 174.32889771 -242.62109375 175.890625 C-242.62641113 176.94918701 -242.63172852 178.00774902 -242.63720703 179.09838867 C-242.75902799 189.43389499 -243.58138551 199.6397475 -244.87109375 209.890625 C-245.01546875 211.07011719 -245.15984375 212.24960937 -245.30859375 213.46484375 C-246.06961025 218.5541416 -246.72198981 222.48623202 -250.87109375 225.890625 C-252.40360934 226.48199732 -253.95724014 227.02029573 -255.5234375 227.515625 C-256.33675537 227.77601563 -257.15007324 228.03640625 -257.98803711 228.3046875 C-258.92015015 228.59472656 -258.92015015 228.59472656 -259.87109375 228.890625 C-261.90011204 271.19631066 -261.90011204 271.19631066 -243.87109375 307.890625 C-243.43490723 308.3556543 -242.9987207 308.82068359 -242.54931641 309.29980469 C-231.44635451 321.0239903 -217.81325108 335.23698788 -200.80859375 336.265625 C-191.95297987 335.4222332 -187.30761896 328.32141404 -181.87109375 321.890625 C-180.51442781 320.18427578 -179.16030546 318.47590146 -177.80859375 316.765625 C-153.9231964 287.31672879 -122.13975904 264.92866707 -83.87109375 260.890625 C-75.64418383 260.35661583 -67.38972434 260.41189982 -59.14892578 260.37939453 C-56.39200136 260.36373288 -53.63565632 260.33081743 -50.87890625 260.296875 C-50.04561798 260.29989624 -49.21232971 260.30291748 -48.35379028 260.30603027 C-43.70957425 260.24576333 -40.62734939 259.91818643 -36.87109375 256.890625 C-33.85107352 252.64627224 -31.51222459 248.20412773 -29.12670898 243.57763672 C-20.72423949 227.39283628 -10.71654353 213.79146595 7.12890625 207.890625 C7.74668945 207.66358887 8.36447266 207.43655273 9.00097656 207.20263672 C24.74700297 201.45809477 41.66314005 201.36532669 58.12890625 203.890625 C60.27390656 203.9539367 62.42060723 203.9772351 64.56640625 203.953125 C66.14228516 203.93958984 66.14228516 203.93958984 67.75 203.92578125 C68.92755859 203.90837891 68.92755859 203.90837891 70.12890625 203.890625 C69.68206237 199.10676695 67.41913082 196.45428286 64.31640625 193.015625 C63.31388036 191.85913266 62.31262534 190.70153769 61.3125 189.54296875 C59.72583267 187.72131212 58.13784638 185.90084584 56.54736328 184.08251953 C48.65046325 174.96806824 43.26351477 166.21922296 39.12890625 154.890625 C38.69320312 153.74722656 38.2575 152.60382813 37.80859375 151.42578125 C34.59073173 142.42993428 32.44757024 133.23047391 30.44702148 123.89672852 C25.70674773 102.77671349 10.51942549 88.93378467 -5.87109375 75.890625 C-6.76570313 75.15199219 -7.6603125 74.41335937 -8.58203125 73.65234375 C-15.65255112 67.33729543 -15.65255112 67.33729543 -24.43359375 64.890625 C-30.81590526 67.50900921 -34.0422907 74.05471242 -37.38867188 79.71875 C-40.04858445 84.04993507 -42.62995945 87.02470999 -46.87109375 89.890625 C-50.34375 90.6484375 -50.34375 90.6484375 -53.93359375 91.015625 C-59.18920284 91.87611326 -59.18920284 91.87611326 -62.8203125 95.484375 C-64.15885892 98.47074488 -64.15885892 98.47074488 -65.07421875 101.4921875 C-65.3371875 102.28367187 -65.60015625 103.07515625 -65.87109375 103.890625 C-67.87109375 104.890625 -67.87109375 104.890625 -71.80859375 104.890625 C-77.69232085 105.43242216 -81.06079565 108.90697629 -85.29296875 112.76171875 C-90.1653105 116.78509186 -94.57027044 117.40172326 -100.73046875 117.26171875 C-113.26067573 115.78115947 -133.15523124 107.46822533 -141.87109375 97.890625 C-148.30252966 85.90476717 -141.07487499 63.59601812 -137.9296875 51.171875 C-134.40383333 39.72391334 -129.46281207 31.7778999 -118.87109375 25.890625 C-113.30855963 22.99138267 -107.60833822 20.4213458 -101.87109375 17.890625 C-100.91565674 17.4579834 -100.91565674 17.4579834 -99.94091797 17.01660156 C-23.67375103 -17.39295994 -23.67375103 -17.39295994 0 0 Z " fill="#4281A4" transform="translate(1052.87109375,101.109375)"/>
<!-- <path d="M0 0 C0.66 0 1.32 0 2 0 C2.28609131 0.68811768 2.57218262 1.37623535 2.86694336 2.08520508 C18.20284062 38.88339818 31.96883942 65.5756881 64.74511719 89.35742188 C92.67145598 109.70047161 92.67145598 109.70047161 94.6953125 120.8203125 C94.85204232 122.25379651 94.99457365 123.68888384 95.125 125.125 C95.24282837 126.28394775 95.24282837 126.28394775 95.36303711 127.46630859 C96.02305202 134.33018894 96.39073226 141.20873813 96.65869141 148.09814453 C96.80083801 151.64889378 97.01245044 155.09150082 97.4921875 158.6171875 C98.38216376 165.19727001 98.37175938 171.87001162 98.5625 178.5 C98.60577737 179.90886473 98.64939431 181.31771907 98.69335938 182.7265625 C98.79890571 186.1509546 98.90101798 189.57541292 99 193 C98.34104736 193.06993164 97.68209473 193.13986328 97.00317383 193.21191406 C79.38067856 195.12603125 65.09365396 198.04183447 49.3359375 206.29296875 C44.5746768 208.72935157 41.34462653 209.59384739 36 209 C26.65274425 204.95209751 20.04852707 197.60744297 13.5625 190 C2.87595098 177.67875056 -9.7567432 169.56803557 -24.6875 163.4375 C-36.77425545 158.44803755 -46.39417255 153.47860661 -52 141 C-54.43068139 135.0738372 -56.45612675 129.06176518 -58.140625 122.88671875 C-62.16735778 108.13676938 -67.53619319 95.82203623 -78.05102539 84.51489258 C-80.66081123 81.70308607 -82.27981333 79.77149057 -83 76 C-82.45698242 75.764021 -81.91396484 75.52804199 -81.35449219 75.28491211 C-66.13551101 68.63989145 -52.6191341 62.00936187 -40 51 C-39.12085938 50.24332031 -38.24171875 49.48664062 -37.3359375 48.70703125 C-29.55615337 41.87915425 -22.99965089 34.24773319 -16.6875 26.0625 C-16.13280029 25.34392822 -15.57810059 24.62535645 -15.0065918 23.88500977 C-10.50871403 17.93279023 -6.66644054 11.71440396 -3.07104492 5.18188477 C-2.09569839 3.42684317 -1.05433808 1.70875483 0 0 Z " fill="#FDFDFD" transform="translate(487,713)"/> -->
</svg>
