<?xml version="1.0" encoding="UTF-8" standalone="no"?>
<svg
   version="1.1"
   width="1261"
   height="1152"
   id="svg1"
   sodipodi:docname="muscleMan.svg"
   inkscape:version="1.3.2 (091e20e, 2023-11-25, custom)"
   xmlns:inkscape="http://www.inkscape.org/namespaces/inkscape"
   xmlns:sodipodi="http://sodipodi.sourceforge.net/DTD/sodipodi-0.dtd"
   xmlns="http://www.w3.org/2000/svg"
   xmlns:svg="http://www.w3.org/2000/svg">
  <defs
     id="defs1" />
  <sodipodi:namedview
     id="namedview1"
     pagecolor="#ffffff"
     bordercolor="#000000"
     borderopacity="0.25"
     inkscape:showpageshadow="2"
     inkscape:pageopacity="0.0"
     inkscape:pagecheckerboard="0"
     inkscape:deskcolor="#d1d1d1"
     inkscape:zoom="0.25196817"
     inkscape:cx="952.50126"
     inkscape:cy="890.98555"
     inkscape:window-width="1920"
     inkscape:window-height="1017"
     inkscape:window-x="-8"
     inkscape:window-y="-8"
     inkscape:window-maximized="1"
     inkscape:current-layer="svg1" />
  <path
     d="m 968.82044,15.913122 c 2.65723,2.037119 5.28577,4.109128 7.9142,6.18325 11.78044,9.218648 24.44476,15.816649 37.82836,22.367423 29.717,14.669645 57.5795,32.976915 84.7397,51.887125 1.2966,0.898052 1.2966,0.898052 2.6195,1.814245 17.4575,12.100535 34.3997,24.840195 50.6972,38.469435 1.1576,0.95152 2.3153,1.90302 3.5081,2.88336 14.8457,12.28172 28.9587,25.39531 41.811,39.75609 8.4998,9.42356 17.6,18.46466 27.2831,26.66757 2.8941,2.52657 5.5443,5.27052 8.2289,8.01602 2.1691,2.12141 4.4396,4.04368 6.771,5.98424 5.9016,5.07163 14.718,12.92925 15.8007,21.00269 0.416,10.59307 -2.6449,19.77212 -6.2481,29.57407 -0.3755,1.02883 -0.7511,2.05767 -1.1379,3.11767 -11.7596,31.73015 -27.1182,62.30552 -43.885,91.66749 -0.4966,0.87076 -0.9932,1.7415 -1.5048,2.63865 -3.372,5.88072 -6.8351,11.70294 -10.3433,17.5032 -0.569,0.94425 -1.1379,1.88851 -1.724,2.86138 -14.3125,23.68033 -29.6937,46.51353 -46.8535,68.22749 -1.3379,1.71821 -1.3379,1.71821 -2.7028,3.47113 -10.2852,12.93324 -21.6532,25.25537 -34.0264,36.22015 -0.573,0.5253 -1.146,1.0506 -1.7364,1.59181 -15.9858,13.67623 -35.2792,17.67118 -55.2828,22.17854 -49.7005,9.57261 -49.7005,9.57261 -88.51858,39.19144 -6.69322,12.16326 -9.28229,26.31083 -12.20914,39.7607 -3.75386,17.23341 -8.6326,33.92941 -14.05113,50.71099 -0.63287,1.98339 -0.63287,1.98339 -1.27858,4.00685 -18.79408,58.75052 -44.61314,115.67432 -79.73315,166.53239 -0.55414,0.80355 -1.10827,1.60709 -1.67913,2.435 -12.51361,18.04287 -12.51361,18.04287 -17.95533,23.75761 -7.20713,7.9584 -8.53111,13.69259 -8.31918,24.24935 -0.0108,1.43498 -0.0183,2.86995 -0.028,4.3484 -0.0162,3.90327 0.0108,7.80358 0.0528,11.70655 0.0356,4.10787 0.014,8.21544 0,12.32337 -0.0205,7.77942 0,15.55795 0.0475,23.33726 0.0615,11.38415 0.0636,22.76836 0.0539,34.15265 -6.4e-4,0.84 0,1.67998 0,2.54542 0,1.67688 0,3.35374 0,5.03062 0,5.65051 0.0194,11.30043 0.0496,16.95085 0.0108,2.9793 0.014,5.95858 0.0216,8.93796 0.0119,1.32613 0.0248,2.65237 0.0377,4.01873 0,9.95411 -0.74805,19.77511 -3.96726,29.25381 -1.51142,4.6422 -2.19948,9.0737 0.002,13.6251 1.45443,2.2381 2.98765,4.3818 4.58945,6.5168 10.48796,14.1923 11.59828,25.9228 11.43391,43.4031 0.0744,8.6868 0.73544,14.9906 5.2463,22.5161 6.41346,11.2257 1.4328,26.7078 -0.98144,37.9742 -150.1397,0 -300.2794,0 -454.96878,0 0,-12.6261 0.45335,-22.2323 3.4804,-34.0634 0.32913,-1.3593 0.65826,-2.7186 0.99738,-4.1191 1.14798,-4.7026 2.28478,-9.3559 3.81593,-13.9494 -1.2646,0.1894 -2.52921,0.3788 -3.83213,0.574 -6.71159,0.8323 -13.40487,0.8745 -20.16037,0.9071 -1.25085,0.025 -2.50172,0.049 -3.79048,0.074 -20.33672,0.099 -33.66321,-6.6565 -48.04515,-20.512 -0.75907,-0.7255 -1.51813,-1.4511 -2.3002,-2.1985 -4.23843,-4.1436 -8.10877,-8.4911 -11.8389,-13.0977 -7.06301,-7.1432 -13.94075,-10.8191 -23.62686,-13.2875 -1.63344,-0.4421 -1.63344,-0.4421 -3.29989,-0.8933 -7.68064,-2.0446 -15.41608,-3.7803 -23.18488,-5.4502 -17.59435,-3.833 -34.69669,-9.391 -51.78422,-15.0184 -1.84419,-0.6072 -3.68921,-1.2119 -5.53516,-1.8138 -34.64719,-11.3283 -64.34109,-28.40551 -91.69649,-52.50434 -0.87056,-0.75296 -1.74112,-1.50592 -2.63807,-2.2817 -2.29452,-1.98828 -4.5687,-3.99779 -6.840447,-6.01201 -1.278356,-1.1134 -1.278356,-1.1134 -2.582531,-2.24929 -6.265692,-5.52614 -12.286778,-11.27917 -18.225778,-17.15204 -0.711816,-0.69646 -1.423631,-1.3929 -2.157017,-2.11046 -4.189293,-4.1808 -7.997064,-8.52145 -11.695129,-13.14403 -5.400739,-6.69013 -11.257762,-12.80873 -17.354527,-18.8529 -1.74494,-1.73222 -3.47682,-3.47679 -5.207858,-5.2229 -6.521794,-6.53039 -13.272124,-12.6206 -20.507761,-18.3655 -8.889336,-7.16167 -11.6446444,-12.02474 -13.0688255,-23.39835 -0.9081472,-9.32593 -0.8435014,-18.6962 -0.8015475,-28.0569 0.00324,-1.04969 0.00539,-2.09937 0.00863,-3.18086 0.2621378,-60.35387 19.621072,-121.73821 60.787036,-166.83962 0.872082,-0.95609 1.744175,-1.91218 2.642691,-2.89724 C 83.100689,648.447 96.797993,640.39555 114.11097,633.14 c 34.75264,-12.79545 34.75264,-12.79545 62.22937,-35.61213 0.63896,-2.4103 0.63896,-2.4103 1.01821,-5.08173 0.16914,-1.00774 0.33829,-2.01548 0.51257,-3.05373 0.17907,-1.07857 0.35815,-2.15713 0.54265,-3.26837 6.85701,-38.12168 27.09381,-74.23547 59.22424,-96.62429 28.45144,-18.981 63.57155,-31.72126 97.76368,-24.9673 7.43555,1.53212 14.48855,3.33292 21.40996,6.53499 1.98998,1.02831 1.98998,1.02831 4.35976,0.8701 0.63535,-0.80642 1.27071,-1.61283 1.92532,-2.44368 15.74062,-19.46867 40.04118,-28.47794 62.64707,-37.2476 19.38075,-7.5239 37.08282,-15.47159 53.90905,-27.84314 1.43184,-0.97137 1.43184,-0.97137 2.89262,-1.96236 6.55876,-4.54161 10.3152,-9.07536 12.13046,-16.92063 0.64066,-3.58068 1.1897,-7.11927 1.56432,-10.73738 0.10688,-0.97899 0.21382,-1.958 0.32397,-2.96666 -0.45132,-4.12 -2.28466,-6.43891 -4.61892,-9.84414 -11.08864,-17.24546 -19.40134,-42.46038 -19.40134,-63.01732 -1.05078,-0.0489 -2.10156,-0.0977 -3.18419,-0.1481 -4.1137,-1.08665 -5.87823,-2.24058 -8.40014,-5.64638 -10.40129,-17.94471 -12.29764,-39.50635 -12.40816,-59.81463 -0.0367,-1.72508 -0.0367,-1.72508 -0.0741,-3.48502 -0.006,-1.10729 -0.0122,-2.21458 -0.0186,-3.35543 -0.0111,-0.99179 -0.0221,-1.98358 -0.0335,-3.00543 0.51558,-3.34847 1.94835,-4.82033 3.97676,-7.48203 1.66208,-9.54583 -0.86128,-20.20352 -2.14747,-29.69441 -0.10845,-0.81387 -0.21691,-1.62775 -0.32864,-2.46628 -3.11891,-23.6955 -3.11891,-23.6955 -8.63152,-46.92567 -0.21908,-0.77807 -0.43815,-1.55614 -0.66386,-2.35777 -1.70537,-5.4205 -4.17177,-8.41048 -8.37035,-12.15621 -6.31642,-6.60158 -9.44197,-11.85886 -9.99688,-21.17856 0.18711,-6.548725 1.94171,-10.804584 6.44244,-15.55069 7.83538,-4.935362 16.69131,-7.835007 25.4735,-10.589281 1.27988,-0.403588 2.55976,-0.807177 3.87842,-1.222996 56.04235,-17.262465 114.26734,-21.478839 172.51084,-17.956183 1.5335,0.09264 3.06701,0.185374 4.64698,0.280876 24.83296,1.700215 24.83296,1.700215 30.45315,6.383702 8.15723,12.479345 8.48061,25.848913 8.53437,40.265182 0.006,1.43321 0.0135,2.86641 0.0205,4.34305 0.0112,3.03931 0.019,6.07866 0.0235,9.11801 0.0113,4.52895 0.048,9.05723 0.0856,13.58603 0.0976,23.02348 -1.72827,45.58083 -5.10951,68.34898 0.90415,0.29325 1.80832,0.58649 2.73988,0.88861 4.46995,2.07904 5.98338,4.57273 8.00097,8.97405 1.13734,3.25636 1.41285,5.66177 1.422,9.09438 0.004,1.13679 0.01,2.27357 0.0145,3.44481 -0.0163,1.81371 -0.0163,1.81371 -0.033,3.66407 -0.006,1.25421 -0.0126,2.5084 -0.0191,3.80061 -0.14433,12.24565 -1.11868,24.33769 -2.64674,36.48309 -0.17105,1.39748 -0.34212,2.79495 -0.51835,4.23478 -0.90167,6.02988 -1.67462,10.68867 -6.59054,14.72225 -1.81575,0.70066 -3.65651,1.33845 -5.51216,1.92532 -0.96363,0.30852 -1.92726,0.61703 -2.9201,0.93489 -1.10438,0.34365 -1.10438,0.34365 -2.23106,0.69423 -2.40402,50.12439 -2.40402,50.12439 18.95703,93.60034 0.5168,0.55098 1.03359,1.10195 1.56605,1.66962 13.15496,13.89098 29.30765,30.73075 49.45502,31.9495 10.49226,-0.99926 15.99615,-9.41242 22.43743,-17.03171 1.60739,-2.02171 3.21177,-4.04582 4.8133,-6.07218 28.29976,-34.89148 65.95724,-61.41718 111.29847,-66.2015 9.74734,-0.63271 19.52736,-0.5672 29.29121,-0.60572 3.26637,-0.0186 6.5322,-0.0576 9.79835,-0.0978 0.98738,0.003 1.97464,0.008 2.99189,0.0109 5.50245,-0.0714 9.15438,-0.45952 13.60485,-4.04662 3.57816,-5.02877 6.34928,-10.29189 9.17562,-15.77342 9.95539,-19.17599 21.81262,-35.2911 42.95624,-42.28249 0.73187,-0.269 1.46386,-0.538 2.21795,-0.81514 18.65615,-6.80622 38.69859,-6.91613 58.20749,-3.92412 2.5414,0.0749 5.0849,0.10256 7.6273,0.0741 1.8671,-0.0161 1.8671,-0.0161 3.7719,-0.0324 1.3953,-0.0206 1.3953,-0.0206 2.8186,-0.0416 -0.5294,-5.66799 -3.2106,-8.81069 -6.8867,-12.88486 -1.1878,-1.37023 -2.3741,-2.74177 -3.5591,-4.11445 -1.8799,-2.15832 -3.7614,-4.31524 -5.6458,-6.46962 -9.3563,-10.79894 -15.7388,-21.1647 -20.6376,-34.58699 -0.5162,-1.35471 -1.0325,-2.70943 -1.5643,-4.10519 -3.8126,-10.65841 -6.3519,-21.55806 -8.7221,-32.61682 -5.61636,-25.0233 -23.61052,-41.4246 -43.03025,-56.87833 -1.05996,-0.87513 -2.11992,-1.75028 -3.21202,-2.65194 -8.3772,-7.482164 -8.3772,-7.482164 -18.78114,-10.381011 -7.56185,3.102297 -11.38452,10.857741 -15.34933,17.568571 -3.15151,5.13165 -6.20995,8.65621 -11.23493,12.05178 -4.11451,0.89787 -4.11451,0.89787 -8.36772,1.33292 -6.22687,1.01953 -6.22687,1.01953 -10.52904,5.29465 -1.58595,3.53828 -1.58595,3.53828 -2.67061,7.11813 -0.31158,0.93776 -0.62305,1.87553 -0.94401,2.84171 -2.3697,1.18482 -2.3697,1.18482 -7.03479,1.18482 -6.97116,0.64192 -10.96218,4.75862 -15.97649,9.32578 -5.77282,4.76694 -10.99204,5.49755 -18.29074,5.33166 -14.84599,-1.75418 -38.41725,-11.60347 -48.74393,-22.95115 -7.62005,-14.20101 0.94337,-40.632736 4.66984,-55.353049 4.17748,-13.56371 10.03167,-22.978258 22.58082,-29.953586 6.59065,-3.435071 13.34427,-6.480078 20.1419,-9.478515 1.13211,-0.512604 1.13211,-0.512604 2.28697,-1.035562 90.3624,-40.7689436 90.3624,-40.7689436 118.41149,-20.161517 z"
     fill="#4281a4"
     id="path1"
     style="stroke-width:1.18482" />
  <!-- <path d="M0 0 C0.66 0 1.32 0 2 0 C2.28609131 0.68811768 2.57218262 1.37623535 2.86694336 2.08520508 C18.20284062 38.88339818 31.96883942 65.5756881 64.74511719 89.35742188 C92.67145598 109.70047161 92.67145598 109.70047161 94.6953125 120.8203125 C94.85204232 122.25379651 94.99457365 123.68888384 95.125 125.125 C95.24282837 126.28394775 95.24282837 126.28394775 95.36303711 127.46630859 C96.02305202 134.33018894 96.39073226 141.20873813 96.65869141 148.09814453 C96.80083801 151.64889378 97.01245044 155.09150082 97.4921875 158.6171875 C98.38216376 165.19727001 98.37175938 171.87001162 98.5625 178.5 C98.60577737 179.90886473 98.64939431 181.31771907 98.69335938 182.7265625 C98.79890571 186.1509546 98.90101798 189.57541292 99 193 C98.34104736 193.06993164 97.68209473 193.13986328 97.00317383 193.21191406 C79.38067856 195.12603125 65.09365396 198.04183447 49.3359375 206.29296875 C44.5746768 208.72935157 41.34462653 209.59384739 36 209 C26.65274425 204.95209751 20.04852707 197.60744297 13.5625 190 C2.87595098 177.67875056 -9.7567432 169.56803557 -24.6875 163.4375 C-36.77425545 158.44803755 -46.39417255 153.47860661 -52 141 C-54.43068139 135.0738372 -56.45612675 129.06176518 -58.140625 122.88671875 C-62.16735778 108.13676938 -67.53619319 95.82203623 -78.05102539 84.51489258 C-80.66081123 81.70308607 -82.27981333 79.77149057 -83 76 C-82.45698242 75.764021 -81.91396484 75.52804199 -81.35449219 75.28491211 C-66.13551101 68.63989145 -52.6191341 62.00936187 -40 51 C-39.12085938 50.24332031 -38.24171875 49.48664062 -37.3359375 48.70703125 C-29.55615337 41.87915425 -22.99965089 34.24773319 -16.6875 26.0625 C-16.13280029 25.34392822 -15.57810059 24.62535645 -15.0065918 23.88500977 C-10.50871403 17.93279023 -6.66644054 11.71440396 -3.07104492 5.18188477 C-2.09569839 3.42684317 -1.05433808 1.70875483 0 0 Z " fill="#FDFDFD" transform="translate(487,713)"/> -->
</svg>
